<svg width="274" height="232" fill="none" xmlns="http://www.w3.org/2000/svg"><mask id="a" style="mask-type:alpha" maskUnits="userSpaceOnUse" x="0" y="135" width="131" height="97"><rect x="1.258" y="136.858" width="128.565" height="93.865" rx="29" stroke="#13C1AC" stroke-width="2"/></mask><g mask="url(#a)"><rect x="-1" y="1" width="128.565" height="93.865" rx="29" transform="matrix(-1 0 0 1 128.824 135.858)" stroke="#ECEFF1" stroke-width="2"/></g><rect x="144.176" y="1" width="128.565" height="93.865" rx="29" stroke="#ECEFF1" stroke-width="2"/><mask id="b" style="mask-type:alpha" maskUnits="userSpaceOnUse" x="0" y="0" width="132" height="125"><rect x="1.555" y="1" width="128.565" height="122.095" rx="29" stroke="#13C1AC" stroke-width="2"/></mask><g mask="url(#b)"><path fill="#ECEFF1" d="M.555 0H131.12v124.896H.555z"/></g><mask id="c" style="mask-type:alpha" maskUnits="userSpaceOnUse" x="143" y="109" width="131" height="123"><rect x="144.176" y="110.98" width="128.565" height="119.743" rx="29" fill="#0F9989" stroke="#13C1AC" stroke-width="2"/></mask><g mask="url(#c)"><rect x="-1" y="1" width="128.565" height="119.743" rx="29" transform="matrix(-1 0 0 1 271.742 109.98)" stroke="#ECEFF1" stroke-width="2"/></g><path d="M33.781 102.57h61.754M43.781 111.393H85.54" stroke="#fff" stroke-width="2" stroke-linecap="round" stroke-linejoin="round"/><path d="M64.66 63.941l.674-7.566" stroke="#803700" stroke-width="2" stroke-linecap="round" stroke-linejoin="round"/><path d="M84.086 13.783l-.318-.197a10.288 10.288 0 00-5.312-1.197c-6.753 0-9.774 3.236-11.008 6.37a762.406 762.406 0 00-8.83 23.886H44.095c0 4.49 3.18 8.839 7.37 10.775 4.947 2.3 10.11 2.6 15.441 2.357a26.88 26.88 0 0014.853-6.323c6.229-5.48 8.034-13.28 8.548-20.137.514-6.855-1.122-13.664-6.22-15.534z" fill="#F49709" stroke="#F49709" stroke-width="2" stroke-linecap="round" stroke-linejoin="round"/><path opacity=".2" d="M81.619 12.782l-.056-.103a13.232 13.232 0 00-3.105-.327c-6.753 0-9.774 3.236-11.008 6.369-2.544 6.547-5.35 14.03-7.782 20.904h18.144a3.62 3.62 0 003.47-2.582c1.6-5.322 4.125-14.487 4.34-17.359.215-2.871-.683-5.668-4.003-6.902z" fill="#803700" stroke="#803700" stroke-width="2" stroke-linecap="round" stroke-linejoin="round"/><path d="M81.616 12.782c3.32 1.235 4.218 4.078 4.003 6.884-.215 2.806-2.74 12.037-4.34 17.359a3.619 3.619 0 01-3.47 2.581H59.234" stroke="#803700" stroke-width="2" stroke-linecap="round" stroke-linejoin="round"/><path d="M114.941 81.986h-32.37c0-4.836-1.887-9.473-5.245-12.892-3.36-3.42-7.915-5.34-12.665-5.34-4.75 0-9.306 1.92-12.665 5.34S46.75 77.15 46.75 81.986H14.371" stroke="#fff" stroke-width="2" stroke-linecap="round" stroke-linejoin="round"/><path fill-rule="evenodd" clip-rule="evenodd" d="M51.316 81.853a13.346 13.346 0 1113.347 13.3 13.337 13.337 0 01-13.346-13.3z" fill="#fff"/><path fill-rule="evenodd" clip-rule="evenodd" d="M65.288 73.95l1.758 1.767a.656.656 0 00.477.16h2.442a.701.701 0 01.682.692v2.46a.57.57 0 00.215.476l1.75 1.712a.673.673 0 010 .935l-1.75 1.777a.682.682 0 00-.215.533v2.45a.711.711 0 01-.683.702h-2.44a.57.57 0 00-.478.206l-1.758 1.72a.673.673 0 01-.935 0l-1.75-1.767a.813.813 0 00-.476-.206h-2.441a.711.711 0 01-.692-.701v-2.45a.608.608 0 00-.215-.487l-1.75-1.702a.692.692 0 010-.935l1.75-1.712a.879.879 0 00.215-.533v-2.46a.702.702 0 01.692-.692h2.44a.59.59 0 00.478-.215l1.749-1.758a.73.73 0 01.935.028z" fill="#385EF9"/><path d="M63.54 84.94a.814.814 0 01-.514-.187l-1.87-1.61a.787.787 0 01.432-1.423.786.786 0 01.587.236l1.272 1.104 3.9-4.34a.777.777 0 011.104-.065.795.795 0 01.056 1.113l-4.405 4.91a.748.748 0 01-.561.262z" fill="#fff"/><path d="M205.021 65.24a5.064 5.064 0 100-10.127 5.064 5.064 0 000 10.128zM236.486 65.24a5.064 5.064 0 10-.001-10.126 5.064 5.064 0 00.001 10.127zM190.086 60.178a5.065 5.065 0 11-10.122 0M231.419 60.178h-21.337" stroke="#fff" stroke-width="2" stroke-linecap="round" stroke-linejoin="round"/><path d="M199.986 60.177h-32.4V56.65a13.147 13.147 0 0113.151-13.151h61.753" stroke="#fff" stroke-width="2" stroke-linecap="round" stroke-linejoin="round"/><path d="M186.504 60.177V56.65a13.153 13.153 0 0113.145-13.15M218.903 30.583h-16.339a11.176 11.176 0 00-10.162 6.546l-2.906 6.387" stroke="#fff" stroke-width="2" stroke-linecap="round" stroke-linejoin="round"/><path d="M205.863 43.516l2.906-6.387a11.17 11.17 0 0110.163-6.546v0c2.128.004 4.212.616 6.004 1.764l20.273 12.94a7.134 7.134 0 013.305 6.016v8.904h-6.945M231.422 36.488v7.028" stroke="#fff" stroke-width="2" stroke-linecap="round" stroke-linejoin="round"/><path d="M227.16 33.67h21.59a1.089 1.089 0 011.083 1.083v1.806a1.089 1.089 0 01-1.083 1.082h-15.526M240.023 41.946l3.135-4.129M91.732 207.216V184.87a6.863 6.863 0 00-6.864-6.863H65.983a5.023 5.023 0 01-5.023-5.023v-8.844a5.026 5.026 0 00-2.562-4.375v-5.844a1.568 1.568 0 10-3.136 0v5.227H39.461a5.01 5.01 0 00-3.552 1.468 5.017 5.017 0 00-1.471 3.55v2.927a5.023 5.023 0 005.023 5.023h3.491a5.023 5.023 0 015.024 5.023v30.103" stroke="#fff" stroke-width="2" stroke-linecap="round" stroke-linejoin="round"/><path d="M60.96 211.67v-12.629a2.556 2.556 0 012.552-2.551h12.691a2.552 2.552 0 012.55 2.551v12.629M52.394 159.121v-5.227a1.57 1.57 0 00-2.677-1.109 1.57 1.57 0 00-.46 1.109v5.227h3.137z" stroke="#fff" stroke-width="2" stroke-linecap="round" stroke-linejoin="round"/><path d="M69.863 218.115c-14.463 0-27.672-5.421-35.335-14.506a2.824 2.824 0 01.324-3.983 2.827 2.827 0 013.983.324c6.508 7.71 18.4 12.498 31.028 12.498 12.629 0 24.52-4.788 31.028-12.498a2.826 2.826 0 114.307 3.659c-7.663 9.085-20.872 14.506-35.335 14.506zM216.939 141.575a8.062 8.062 0 00-8.069-8.069h-28.001a16.795 16.795 0 00-11.889 4.921 16.813 16.813 0 00-4.925 11.888v22.637a9.25 9.25 0 009.251 9.251h9.41a9.252 9.252 0 009.251-9.251v-9.528a2.022 2.022 0 012.023-2.023h14.904c2.14 0 4.192-.85 5.705-2.364a8.065 8.065 0 002.364-5.705l-.024-11.757z" stroke="#fff" stroke-width="2" stroke-linecap="round" stroke-linejoin="round"/><path d="M216.344 138.54h10.904a5.348 5.348 0 015.34 5.346v7.14a5.347 5.347 0 01-5.34 5.34h-10.904M224.648 138.54v17.826" stroke="#fff" stroke-width="2" stroke-linecap="round" stroke-linejoin="round"/><path d="M232.582 145.986h20.52a1.47 1.47 0 010 2.941h-20.52M198.887 161.4a6.93 6.93 0 01-2.035 4.91 6.946 6.946 0 01-4.911 2.03M180.922 145.986l3.87-3.876M188.07 145.986l3.876-3.876M195.219 145.986l3.876-3.876M183.982 182.209v1.953a2.3 2.3 0 01-2.299 2.299h-7.387a2.3 2.3 0 01-2.3-2.299v-2.047M178.286 186.796c0 6.563-.188 9.157-3.135 12.492-1.394 1.582-3.24 2.94-3.84 4.94-.688 2.353.694 4.993 2.858 6.128 2.164 1.135 4.758.63 7.058-.229 4.316-1.635 9.151-4.117 14.203.141" stroke="#fff" stroke-width="2" stroke-linecap="round" stroke-linejoin="round"/></svg>